<svg xmlns="http://www.w3.org/2000/svg" width="192" height="192" viewBox="0 0 192 192"><title>idea-or-innovation</title><g id="9d657a96-172b-4777-a329-3572b34afeb1" data-name="ICON"><path d="M124,128a4,4,0,0,1-4,4H72a4,4,0,0,1-4-4h0c0-13-10.62-23.5-10.62-23.5a79.41,79.41,0,0,1-6.21-9,48.8,48.8,0,0,1-7-25h0s0-.09,0-.13c0-.8,0-1.6.06-2.4v-.15C45.51,43.18,65.64,21,94.33,20l1.82,0L98,20c28.7.92,48.82,23.15,50.14,47.79V68c0,.8.06,1.6.06,2.4,0,0,0,.09,0,.13h0a48.8,48.8,0,0,1-7,25,79.41,79.41,0,0,1-6.21,9S124,115,124,128Z" fill="none" stroke="#333" stroke-miterlimit="10" stroke-width="8"/><path d="M108,164H84a12,12,0,0,1-12-12V132h48v20A12,12,0,0,1,108,164Z" fill="none" stroke="#333" stroke-miterlimit="10" stroke-width="8"/><path d="M104,164v4a4,4,0,0,1-4,4H92a4,4,0,0,1-4-4v-4" fill="none" stroke="#333" stroke-miterlimit="10" stroke-width="8"/><rect width="192" height="192" fill="none"/></g></svg>